<?xml version="1.0" encoding="UTF-8"?>
<svg width="60px" height="60px" viewBox="0 0 60 60" version="1.1" xmlns="http://www.w3.org/2000/svg" xmlns:xlink="http://www.w3.org/1999/xlink">
    <!-- Generator: Sketch 63.1 (92452) - https://sketch.com -->
    <title>1078_Talk icon_Estonian Design Team_923</title>
    <desc>Created with Sketch.</desc>
    <g id="Page-1" stroke="none" stroke-width="1" fill="none" fill-rule="evenodd" stroke-linecap="round" stroke-linejoin="round">
        <g id="Robot-Valitsussinine" transform="translate(-290.000000, -50.000000)" stroke="#FFFFFF" stroke-width="2">
            <g id="Open-Chat" transform="translate(280.000000, 40.000000)">
                <g id="1078_Talk-icon_Estonian-Design-Team_923" transform="translate(11.000000, 11.000000)">
                    <path d="M27.9207,17.4124 C27.2696,13.4044711 24.2656,10.1848717 20.3123364,9.25797802 C16.3590728,8.33108435 12.237057,9.87989746 9.87232462,13.1807255 C7.50759223,16.4815535 7.36702351,20.8826985 9.5163,24.3277 C9.76006175,24.7109971 9.82018917,25.183034 9.6803,25.6152 L8.8117,28.2376 L8.8117,28.2376" id="Path"></path>
                    <path d="M12.7164,27.53 C13.8794126,28.2570383 15.179802,28.7365484 16.5364,28.9386" id="Path"></path>
                    <path d="M41.4135,45.8782 C35.3726499,49.6505007 27.4629208,48.2904504 23.0290306,42.7170545 C18.5951405,37.1436587 19.0481741,29.1306498 24.0820102,24.0925334 C29.1158463,19.0544169 37.1284672,18.5945727 42.7056296,23.0237241 C48.2827921,27.4528755 49.6495649,35.3614457 45.8824,41.4055 C45.5419701,41.9407681 45.4579754,42.5999664 45.6533,43.2035 L46.8663,46.8657 L46.8663,46.8657" id="Path"></path>
                    <path d="M34,57.5616 C49.2812338,54.8728794 59.7332769,40.6248853 57.7093944,25.2414779 C55.6855118,9.85807055 41.9039136,-1.20168034 26.4472436,0.15356048 C10.9905737,1.5088013 -0.656099618,14.798103 0.0279525008,30.2989868 C0.71200462,45.7998705 13.4840344,58.0115778 29,58.0000082" id="Path"></path>
                </g>
            </g>
        </g>
    </g>
</svg>